<?xml version="1.0" standalone="no"?>
<!DOCTYPE svg PUBLIC "-//W3C//DTD SVG 20010904//EN"
 "http://www.w3.org/TR/2001/REC-SVG-20010904/DTD/svg10.dtd">
<svg version="1.0" xmlns="http://www.w3.org/2000/svg"
 width="1000.000000pt" height="1000.000000pt" viewBox="0 0 1000.000000 1000.000000"
 preserveAspectRatio="xMidYMid meet">

<g transform="translate(0.000000,1000.000000) scale(0.100000,-0.100000)"
fill="#000000" stroke="none">
<path d="M0 5000 l0 -5000 5000 0 5000 0 0 5000 0 5000 -5000 0 -5000 0 0
-5000z m5360 4082 c0 -35 2 -39 28 -39 15 0 177 -1 360 -2 l332 -1 0 -40 0
-40 80 0 80 0 0 -40 0 -40 160 0 160 0 0 -40 0 -40 40 0 40 0 0 -40 0 -40 120
0 120 0 0 -40 0 -40 40 0 40 0 0 -40 0 -40 120 0 120 0 0 -80 0 -80 80 0 80 0
0 -40 0 -40 40 0 40 0 0 -40 0 -40 120 0 120 0 0 -80 0 -80 80 0 80 0 0 -80 0
-80 80 0 80 0 0 -80 0 -80 80 0 80 0 0 -80 0 -80 40 0 40 0 0 -80 0 -80 40 0
40 0 0 -40 0 -40 40 0 40 0 0 -40 0 -40 40 0 40 0 0 -80 0 -80 40 0 40 0 0
-80 0 -80 40 0 40 0 0 -80 0 -80 40 0 40 0 0 -80 0 -80 40 0 40 0 0 -120 0
-120 40 0 40 0 0 -40 c0 -40 0 -40 40 -40 l39 0 3 -157 3 -158 38 -3 37 -3 0
-160 0 -159 35 0 35 0 0 -51 c0 -41 5 -57 27 -83 26 -31 26 -31 20 -5 -5 19
-2 29 8 33 8 3 15 11 15 18 0 10 -2 10 -9 0 -6 -10 -10 -8 -14 10 -12 44 -7
64 18 78 14 7 25 20 25 28 0 9 3 13 6 9 10 -10 -7 -68 -18 -61 -6 4 -6 -1 1
-14 6 -11 11 -34 11 -51 0 -25 -4 -31 -22 -31 -13 0 -18 -4 -13 -8 13 -10 18
-42 6 -42 -19 0 -41 12 -36 20 3 5 1 11 -4 14 -5 3 -9 -35 -10 -89 -1 -66 2
-95 10 -95 8 0 8 -4 -1 -15 -27 -32 36 -57 85 -34 16 8 15 8 -8 4 -36 -7 -67
2 -67 21 0 9 12 14 33 15 l32 1 -30 8 -30 8 27 1 c15 0 29 -3 33 -9 4 -6 15
-6 31 0 14 6 43 10 66 10 32 0 41 4 45 21 5 16 8 18 15 7 7 -9 8 -5 4 13 -5
22 -2 26 17 25 l22 -1 2 -275 c2 -187 7 -282 15 -297 10 -20 20 -23 65 -23 45
0 54 -3 51 -16 -2 -13 -16 -17 -68 -17 -36 0 -72 -4 -80 -9 -12 -8 -11 -8 3
-4 10 3 15 2 12 -4 -3 -5 1 -23 10 -39 25 -49 19 -120 -16 -188 -26 -50 -38
-62 -82 -83 -43 -21 -67 -25 -137 -25 -47 0 -98 4 -115 9 -30 8 -30 8 -7 -9
24 -17 22 -38 -3 -28 -8 3 -15 0 -15 -7 0 -7 12 -9 34 -6 19 3 38 1 41 -4 4
-6 -10 -10 -34 -10 l-41 0 0 -160 0 -160 -40 0 -40 0 0 -160 0 -160 -40 0 -40
0 0 -80 0 -80 -40 0 -40 0 0 -120 c0 -73 -4 -120 -10 -120 -5 0 -10 -18 -10
-40 0 -38 -2 -40 -30 -40 -28 0 -30 -2 -30 -40 l0 -40 -40 0 -40 0 0 -120 0
-120 -40 0 -40 0 0 -40 0 -40 -40 0 -40 0 0 -120 0 -120 -80 0 -80 0 0 -80 0
-80 -80 0 -80 0 0 -80 0 -80 -40 0 -40 0 0 -40 0 -40 -40 0 -40 0 0 -40 0 -40
-40 0 -40 0 0 -40 0 -40 -40 0 -40 0 0 -40 0 -40 -40 0 -40 0 0 -40 0 -40 -40
0 -40 0 0 -40 0 -40 -80 0 -80 0 0 -80 0 -80 -80 0 -80 0 0 -80 0 -80 -120 0
-120 0 0 -40 0 -40 -40 0 -40 0 0 -40 0 -40 -120 0 -120 0 0 -40 0 -40 -40 0
-40 0 0 -40 0 -40 -120 0 -120 0 0 -40 0 -40 -120 0 -120 0 0 -40 0 -40 -172
-1 c-95 -1 -185 -2 -200 -2 -26 0 -28 -4 -28 -39 l0 -38 -120 0 -120 0 0 -40
0 -40 -640 0 -640 0 0 40 0 40 -119 0 -120 0 -3 38 c-4 43 20 39 -233 41
l-165 1 0 40 0 40 -80 0 -80 0 0 40 0 40 -160 0 -160 0 0 80 0 80 -80 0 -80 0
0 40 0 40 -80 0 -80 0 0 40 0 40 -80 0 -80 0 0 40 0 40 -40 0 -40 0 0 40 0 40
-40 0 -40 0 0 40 c0 40 0 40 -39 40 -39 0 -40 1 -43 37 -3 43 9 39 -153 42
l-85 1 0 80 0 80 -80 0 -80 0 0 80 0 80 -80 0 -80 0 0 80 0 80 -80 0 -80 0 0
120 0 120 -40 0 -40 0 0 40 c0 40 0 40 -40 40 l-39 0 -3 78 -3 77 -77 3 -78 3
0 119 0 120 -40 0 -40 0 0 40 0 40 -40 0 -40 0 0 120 0 120 -40 0 -40 0 0 40
0 40 -40 0 -40 0 0 160 0 160 -40 0 -40 0 0 80 0 80 -40 0 -40 0 0 255 c0 251
0 255 -21 255 -11 0 -27 -7 -35 -15 -9 -9 -34 -15 -60 -15 -50 0 -56 6 -18 20
28 11 24 33 -4 23 -9 -3 -14 -3 -10 2 8 9 31 12 101 14 26 0 47 5 47 10 0 12
-49 20 -56 9 -6 -9 -122 -6 -139 4 -5 3 -37 5 -70 4 -72 -3 -87 5 -72 37 8 17
17 22 37 19 23 -3 27 2 44 47 10 28 22 51 27 51 6 0 7 15 4 34 -4 18 -3 36 3
40 5 3 7 -6 5 -22 -4 -25 -3 -25 10 -10 10 12 13 33 9 68 -3 34 -1 50 7 50 7
0 9 -9 5 -26 -5 -19 -4 -25 5 -20 6 4 11 18 11 32 0 14 4 22 10 19 6 -3 10 -2
10 4 0 5 3 18 6 28 4 11 3 14 -3 6 -5 -6 -9 17 -11 58 -2 57 0 69 13 69 8 0
14 3 14 8 -3 16 2 23 11 17 6 -4 3 -17 -10 -35 -24 -34 -26 -63 -3 -81 15 -13
15 -11 9 24 -5 27 -4 37 3 32 6 -3 11 1 11 9 0 9 5 16 10 16 6 0 10 6 10 14 0
8 4 16 9 18 10 3 14 28 12 66 -1 23 -26 31 -34 10 -3 -7 -6 20 -6 60 -1 56 2
74 14 78 9 4 15 19 15 40 0 33 2 34 38 34 36 0 37 1 40 40 l2 40 -40 0 -40 0
0 40 0 40 40 0 40 0 0 280 0 280 40 0 40 0 0 80 0 80 40 0 40 0 0 160 0 160
40 0 40 0 0 80 0 80 40 0 40 0 0 80 0 80 40 0 40 0 0 80 0 80 40 0 40 0 0 80
0 80 40 0 40 0 0 40 c0 39 1 40 34 40 33 0 33 1 40 53 3 28 6 82 6 119 l0 67
78 3 77 3 3 78 3 77 39 0 c40 0 40 0 40 40 l0 40 40 0 40 0 0 40 0 40 40 0 40
0 0 40 0 40 40 0 40 0 0 40 0 40 40 0 40 0 0 40 0 40 40 0 40 0 0 40 0 40 40
0 40 0 0 40 0 40 40 0 c40 0 40 0 40 40 l0 39 78 3 77 3 3 78 3 77 119 0 120
0 0 40 0 40 40 0 c40 0 40 0 40 40 l0 39 78 3 77 3 3 78 3 77 159 0 160 0 0
40 0 40 80 0 80 0 0 40 0 40 160 0 160 0 0 40 0 40 80 0 80 0 0 40 0 40 245 1
c135 1 278 2 318 3 l72 1 3 38 3 37 360 0 359 0 0 -38z m3820 -3337 c0 -21
-30 -31 -41 -14 -14 23 -11 29 16 29 16 0 25 -6 25 -15z m210 -15 c26 -26 35
-66 21 -96 -9 -21 -64 -64 -82 -64 -3 0 -20 14 -38 30 -50 49 -41 121 19 143
31 11 61 6 80 -13z m-144 -32 c-19 -26 -22 -7 -4 25 7 13 13 17 15 10 3 -7 -3
-23 -11 -35z m-106 -33 c0 -8 -4 -15 -10 -15 -5 0 -10 7 -10 15 0 8 5 15 10
15 6 0 10 -7 10 -15z m107 -57 c-3 -7 -5 -2 -5 12 0 14 2 19 5 13 2 -7 2 -19
0 -25z m60 -174 c-3 -3 -12 -4 -19 -1 -8 3 -5 6 6 6 11 1 17 -2 13 -5z m13
-34 c0 -5 -4 -10 -10 -10 -5 0 -10 5 -10 10 0 6 5 10 10 10 6 0 10 -4 10 -10z
m107 -32 c-3 -8 -6 -5 -6 6 -1 11 2 17 5 13 3 -3 4 -12 1 -19z m0 -80 c-3 -8
-6 -5 -6 6 -1 11 2 17 5 13 3 -3 4 -12 1 -19z m-8588 -160 c-1 -42 -1 -42 -10
-13 -5 17 -7 36 -4 43 9 24 15 11 14 -30z m-23 -25 c-10 -10 -19 5 -10 18 6
11 8 11 12 0 2 -7 1 -15 -2 -18z m61 -67 c-1 -23 -6 -33 -17 -31 -21 3 -26 45
-6 45 9 0 16 5 16 10 0 6 2 10 4 10 3 0 4 -15 3 -34z m8550 -118 c-2 -24 -4
-5 -4 42 0 47 2 66 4 43 2 -24 2 -62 0 -85z m-8683 -133 c-4 -8 -8 -15 -10
-15 -2 0 -4 7 -4 15 0 8 4 15 10 15 5 0 7 -7 4 -15z m-134 -245 c0 -5 -5 -10
-11 -10 -5 0 -7 5 -4 10 3 6 8 10 11 10 2 0 4 -4 4 -10z m8565 -110 c-3 -5
-17 -10 -31 -10 -13 0 -24 5 -24 10 0 6 14 10 31 10 17 0 28 -4 24 -10z m50 0
c-3 -5 -10 -10 -16 -10 -5 0 -9 5 -9 10 0 6 7 10 16 10 8 0 12 -4 9 -10z"/>
<path d="M1053 5473 c-3 -10 -8 -21 -10 -25 -2 -5 0 -8 5 -8 5 0 12 11 14 25
6 29 0 33 -9 8z"/>
<path d="M980 5350 c0 -5 5 -10 10 -10 6 0 10 5 10 10 0 6 -4 10 -10 10 -5 0
-10 -4 -10 -10z"/>
<path d="M9175 5292 c-32 -3 -36 -6 -20 -12 17 -8 16 -9 -8 -9 -39 -1 -30 -26
9 -26 22 0 28 4 26 18 -2 9 2 17 7 17 5 0 9 -13 9 -29 -1 -22 -6 -29 -22 -29
-60 -3 -56 9 -56 -168 0 -162 4 -194 22 -194 5 0 7 4 4 9 -3 5 5 11 19 13 20
4 23 3 14 -8 -9 -12 -3 -14 35 -14 l46 0 0 220 0 220 -22 -2 c-13 -1 -41 -3
-63 -6z"/>
<path d="M8981 5264 c0 -11 3 -14 6 -6 3 7 2 16 -1 19 -3 4 -6 -2 -5 -13z"/>
<path d="M9032 5220 c0 -14 2 -19 5 -12 2 6 2 18 0 25 -3 6 -5 1 -5 -13z"/>
<path d="M9000 5216 c0 -9 5 -16 10 -16 6 0 10 4 10 9 0 6 -4 13 -10 16 -5 3
-10 -1 -10 -9z"/>
<path d="M1075 5210 c-3 -5 -1 -10 4 -10 6 0 11 5 11 10 0 6 -2 10 -4 10 -3 0
-8 -4 -11 -10z"/>
<path d="M865 5148 c0 -42 3 -51 19 -54 10 -1 23 -9 27 -16 7 -10 9 -9 9 5 0
9 -5 17 -11 17 -8 0 -8 5 1 15 7 8 9 15 6 15 -4 0 -1 7 6 15 43 47 46 55 24
55 -8 0 -18 -9 -21 -20 -3 -11 -11 -20 -17 -20 -5 0 -12 9 -15 20 -11 41 -29
21 -28 -32z"/>
<path d="M9033 5115 c0 -44 2 -61 4 -37 2 23 2 59 0 80 -2 20 -4 1 -4 -43z"/>
<path d="M1000 5113 c1 -14 30 -48 30 -34 0 7 -7 19 -15 27 -8 9 -15 12 -15 7z"/>
<path d="M9003 4960 c0 -47 2 -66 4 -42 2 23 2 61 0 85 -2 23 -4 4 -4 -43z"/>
<path d="M927 4943 c-4 -6 -2 -24 5 -40 7 -19 12 -23 15 -12 5 21 -12 65 -20
52z"/>
<path d="M9032 4855 c0 -16 2 -22 5 -12 2 9 2 23 0 30 -3 6 -5 -1 -5 -18z"/>
<path d="M978 4863 c12 -2 32 -2 45 0 12 2 2 4 -23 4 -25 0 -35 -2 -22 -4z"/>
<path d="M9002 4840 c0 -14 2 -19 5 -12 2 6 2 18 0 25 -3 6 -5 1 -5 -13z"/>
<path d="M9120 4840 c0 -5 4 -10 9 -10 6 0 13 5 16 10 3 6 -1 10 -9 10 -9 0
-16 -4 -16 -10z"/>
<path d="M9208 4843 c7 -3 16 -2 19 1 4 3 -2 6 -13 5 -11 0 -14 -3 -6 -6z"/>
<path d="M9120 4766 c0 -33 2 -34 32 -33 18 1 33 -3 36 -11 3 -10 -4 -12 -32
-7 l-36 7 0 -60 c0 -39 -4 -62 -12 -65 -10 -4 -10 -7 0 -18 10 -11 12 -11 12
1 0 7 3 10 6 7 4 -4 1 -15 -7 -24 -7 -10 -10 -15 -5 -11 5 4 18 1 30 -7 11 -8
30 -15 41 -14 19 0 18 1 -2 9 -33 13 -29 16 22 15 44 -1 79 -15 37 -15 -12 0
-22 -4 -22 -10 0 -13 4 -13 51 1 21 7 36 15 34 20 -3 4 3 5 12 3 12 -3 28 9
46 33 21 29 27 47 27 89 0 45 -4 57 -30 83 -33 32 -53 38 -117 32 -27 -2 -43
-8 -43 -16 0 -18 -30 -12 -42 8 -16 30 -38 20 -38 -17z"/>
<path d="M866 4765 c5 -11 2 -13 -12 -8 -13 5 -16 3 -11 -10 3 -8 1 -18 -6
-21 -7 -2 -4 -5 6 -5 9 -1 17 2 17 7 0 4 39 7 87 6 l88 -1 -80 7 c-44 3 -69 7
-55 8 l25 2 -29 15 c-35 19 -37 19 -30 0z"/>
<path d="M9032 4730 c0 -14 2 -19 5 -12 2 6 2 18 0 25 -3 6 -5 1 -5 -13z"/>
<path d="M848 4688 c-2 -15 -9 -22 -22 -21 -16 1 -18 -4 -13 -35 4 -35 4 -35
-6 -10 l-11 28 -12 -37 c-15 -41 -10 -60 5 -22 9 23 10 23 10 2 1 -12 -4 -25
-10 -28 -5 -4 -8 -12 -6 -18 5 -15 89 -9 99 6 6 9 8 9 8 0 0 -7 -7 -16 -16
-21 -12 -7 -9 -9 13 -9 24 0 28 5 30 31 1 17 12 38 23 48 11 9 20 21 20 27 0
14 -27 14 -35 1 -3 -5 -16 -15 -28 -22 -20 -10 -21 -10 -8 6 10 12 11 20 4 24
-6 4 -14 22 -18 40 -8 37 -22 42 -27 10z m17 -38 c3 -5 1 -10 -4 -10 -6 0 -11
5 -11 10 0 6 2 10 4 10 3 0 8 -4 11 -10z"/>
<path d="M9010 4690 c0 -5 5 -10 11 -10 5 0 7 5 4 10 -3 6 -8 10 -11 10 -2 0
-4 -4 -4 -10z"/>
<path d="M9035 4661 c-5 -15 -2 -28 8 -38 12 -13 15 -12 20 6 2 11 -1 28 -8
37 -12 16 -13 16 -20 -5z"/>
<path d="M9070 4615 c0 -5 5 -17 10 -25 5 -8 10 -10 10 -5 0 6 -5 17 -10 25
-5 8 -10 11 -10 5z"/>
<path d="M935 4590 c-8 -12 2 -30 17 -30 7 0 7 5 -1 14 -9 11 -9 15 1 19 9 4
9 6 1 6 -6 1 -15 -3 -18 -9z"/>
</g>
</svg>
